<svg width="50" height="50" viewBox="0 0 50 50" fill="none" xmlns="http://www.w3.org/2000/svg">
<path d="M25 4.16675C26.1051 4.16675 27.1649 4.60573 27.9463 5.38714C28.7277 6.16854 29.1667 7.22835 29.1667 8.33342C29.1667 9.87508 28.3334 11.2292 27.0834 11.9376V14.5834H29.1667C33.0344 14.5834 36.7438 16.1199 39.4787 18.8548C42.2136 21.5897 43.75 25.299 43.75 29.1667H45.8334C46.3859 29.1667 46.9158 29.3862 47.3065 29.7769C47.6972 30.1676 47.9167 30.6975 47.9167 31.2501V37.5001C47.9167 38.0526 47.6972 38.5825 47.3065 38.9732C46.9158 39.3639 46.3859 39.5834 45.8334 39.5834H43.75V41.6668C43.75 42.7718 43.3111 43.8316 42.5296 44.613C41.7482 45.3944 40.6884 45.8334 39.5834 45.8334H10.4167C9.31164 45.8334 8.25183 45.3944 7.47043 44.613C6.68903 43.8316 6.25004 42.7718 6.25004 41.6668V39.5834H4.16671C3.61417 39.5834 3.08427 39.3639 2.69357 38.9732C2.30287 38.5825 2.08337 38.0526 2.08337 37.5001V31.2501C2.08337 30.6975 2.30287 30.1676 2.69357 29.7769C3.08427 29.3862 3.61417 29.1667 4.16671 29.1667H6.25004C6.25004 25.299 7.78649 21.5897 10.5214 18.8548C13.2563 16.1199 16.9656 14.5834 20.8334 14.5834H22.9167V11.9376C21.6667 11.2292 20.8334 9.87508 20.8334 8.33342C20.8334 7.22835 21.2724 6.16854 22.0538 5.38714C22.8352 4.60573 23.895 4.16675 25 4.16675ZM15.625 27.0834C14.2437 27.0834 12.9189 27.6322 11.9422 28.6089C10.9654 29.5857 10.4167 30.9104 10.4167 32.2918C10.4167 33.6731 10.9654 34.9978 11.9422 35.9746C12.9189 36.9514 14.2437 37.5001 15.625 37.5001C17.0064 37.5001 18.3311 36.9514 19.3079 35.9746C20.2846 34.9978 20.8334 33.6731 20.8334 32.2918C20.8334 30.9104 20.2846 29.5857 19.3079 28.6089C18.3311 27.6322 17.0064 27.0834 15.625 27.0834ZM34.375 27.0834C32.9937 27.0834 31.6689 27.6322 30.6922 28.6089C29.7154 29.5857 29.1667 30.9104 29.1667 32.2918C29.1667 33.6731 29.7154 34.9978 30.6922 35.9746C31.6689 36.9514 32.9937 37.5001 34.375 37.5001C35.7564 37.5001 37.0811 36.9514 38.0579 35.9746C39.0346 34.9978 39.5834 33.6731 39.5834 32.2918C39.5834 30.9104 39.0346 29.5857 38.0579 28.6089C37.0811 27.6322 35.7564 27.0834 34.375 27.0834Z" fill="white"/>
</svg>
